<?xml version="1.0" encoding="UTF-8"?>
<svg width="52px" height="27px" viewBox="0 0 52 27" version="1.1" xmlns="http://www.w3.org/2000/svg" xmlns:xlink="http://www.w3.org/1999/xlink">
    <!-- Generator: Sketch 51 (57462) - http://www.bohemiancoding.com/sketch -->
    <title>Cisco_logo_blue</title>
    <desc>Created with Sketch.</desc>
    <defs></defs>
    <g id="Cisco_logo_blue" stroke="none" stroke-width="1" fill="none" fill-rule="evenodd">
        <path d="M51.8186248,8.37343872 C51.8186248,7.76088292 51.3210615,7.26221385 50.7074,7.26221385 C50.0926328,7.26221385 49.5961751,7.76088292 49.5961751,8.37343872 L49.5961751,10.7108809 C49.5961751,11.3267538 50.0926328,11.8254228 50.7074,11.8254228 C51.3210615,11.8254228 51.8186248,11.3267538 51.8186248,10.7108809 L51.8186248,8.37343872 Z M45.7030181,5.30513125 C45.7030181,4.69146976 45.2065605,4.19390638 44.5774192,4.19390638 C43.9637577,4.19390638 43.4673001,4.69146976 43.4673001,5.30513125 L43.4673001,10.7108809 C43.4673001,11.3267538 43.9637577,11.8254228 44.5774192,11.8254228 C45.2065605,11.8254228 45.7030181,11.3267538 45.7030181,10.7108809 L45.7030181,5.30513125 Z M39.5741431,1.11011917 C39.5741431,0.49535198 39.0765797,0 38.4629182,0 C37.8492567,0 37.3505877,0.49535198 37.3505877,1.11011917 L37.3505877,12.9300135 C37.3505877,13.5480978 37.8492567,14.0445555 38.4629182,14.0445555 C39.0765797,14.0445555 39.5741431,13.5480978 39.5741431,12.9300135 L39.5741431,1.11011917 Z M33.4441623,5.30513125 C33.4441623,4.69146976 32.9477047,4.19390638 32.3329375,4.19390638 C31.7181703,4.19390638 31.2228183,4.69146976 31.2228183,5.30513125 L31.2228183,10.7108809 C31.2228183,11.3267538 31.7181703,11.8254228 32.3329375,11.8254228 C32.9477047,11.8254228 33.4441623,11.3267538 33.4441623,10.7108809 L33.4441623,5.30513125 Z M27.3152873,8.37343872 C27.3152873,7.76088292 26.8199353,7.26221385 26.2095909,7.26221385 C25.593718,7.26221385 25.0928375,7.76088292 25.0928375,8.37343872 L25.0928375,10.7108809 C25.0928375,11.3267538 25.593718,11.8254228 26.2095909,11.8254228 C26.8199353,11.8254228 27.3152873,11.3267538 27.3152873,10.7108809 L27.3152873,8.37343872 Z M21.1996806,5.30513125 C21.1996806,4.69146976 20.6976944,4.19390638 20.0829272,4.19390638 C19.46816,4.19390638 18.9672796,4.69146976 18.9672796,5.30513125 L18.9672796,10.7108809 C18.9672796,11.3267538 19.46816,11.8254228 20.0829272,11.8254228 C20.6976944,11.8254228 21.1996806,11.3267538 21.1996806,10.7108809 L21.1996806,5.30513125 Z M15.0696998,1.11011917 C15.0696998,0.49535198 14.5710308,0 13.9551579,0 C13.3437078,0 12.8406159,0.49535198 12.8406159,1.11011917 L12.8406159,12.9300135 C12.8406159,13.5480978 13.3437078,14.0445555 13.9551579,14.0445555 C14.5710308,14.0445555 15.0696998,13.5480978 15.0696998,12.9300135 L15.0696998,1.11011917 Z M8.94524755,5.30513125 C8.94524755,4.69146976 8.44326139,4.19390638 7.83181129,4.19390638 C7.21593841,4.19390638 6.71505795,4.69146976 6.71505795,5.30513125 L6.71505795,10.7108809 C6.71505795,11.3267538 7.21593841,11.8254228 7.83181129,11.8254228 C8.44326139,11.8254228 8.94524755,11.3267538 8.94524755,10.7108809 L8.94524755,5.30513125 Z M2.81968959,8.37343872 C2.81968959,7.76088292 2.31880912,7.26221385 1.70404193,7.26221385 C1.09038044,7.26221385 0.58949998,7.76088292 0.58949998,8.37343872 L0.58949998,10.7108809 C0.58949998,11.3267538 1.09038044,11.8254228 1.70404193,11.8254228 C2.31880912,11.8254228 2.81968959,11.3267538 2.81968959,10.7108809 L2.81968959,8.37343872 Z M25.8436054,18.0637618 C25.7750522,18.0460707 24.7478603,17.7784922 23.6532209,17.7784922 C21.5844629,17.7784922 20.3361317,18.8974569 20.3361317,20.56153 C20.3361317,22.0376346 21.3788034,22.7707113 22.6326631,23.1665506 C22.7708751,23.2129899 22.975429,23.2749089 23.1103239,23.3213481 C23.6698063,23.4960482 24.1120849,23.7569925 24.1120849,24.2081166 C24.1120849,24.7123142 23.597936,25.0384946 22.4811827,25.0384946 C21.50043,25.0384946 20.5583767,24.7587534 20.3582456,24.7078914 L20.3582456,26.7578525 C20.469921,26.7821778 21.5888857,27 22.7841435,27 C24.5023957,27 26.4694295,26.2492322 26.4694295,24.0135141 C26.4694295,22.9288259 25.804906,21.9303821 24.3475982,21.4659896 L23.7273025,21.2691756 C23.3579999,21.1519718 22.6978992,20.9628977 22.6978992,20.4211065 C22.6978992,19.9920963 23.1877227,19.6913469 24.0888652,19.6913469 C24.8650641,19.6913469 25.8093288,19.9522912 25.8436054,19.9655596 L25.8436054,18.0637618 Z M42.5064499,20.0495925 C43.8354969,20.0495925 44.8284123,21.0977927 44.8284123,22.3914575 C44.8284123,23.6851222 43.8354969,24.7333224 42.5064499,24.7333224 C41.1718744,24.7333224 40.1822761,23.6851222 40.1822761,22.3914575 C40.1822761,21.0977927 41.1718744,20.0495925 42.5064499,20.0495925 Z M47.2089766,22.3914575 C47.2089766,19.8461444 45.2430484,17.7829149 42.5064499,17.7829149 C39.76764,17.7829149 37.8017118,19.8461444 37.8017118,22.3914575 C37.8017118,24.9356649 39.76764,27 42.5064499,27 C45.2430484,27 47.2089766,24.9356649 47.2089766,22.3914575 Z M11.9903354,18.0991441 C11.7791474,18.0394365 10.9985257,17.7829149 9.94148,17.7829149 C7.20930423,17.7829149 5.2013596,19.7300463 5.2013596,22.3914575 C5.2013596,25.2585282 7.41606945,27 9.94148,27 C10.9454523,27 11.7105942,26.7622753 11.9903354,26.6837708 L11.9903354,24.2932553 C11.8941398,24.3474344 11.1599574,24.7653876 10.101806,24.7653876 C8.60579876,24.7653876 7.64052582,23.7127647 7.64052582,22.3914575 C7.64052582,21.0259224 8.64781523,20.0164216 10.101806,20.0164216 C11.1776486,20.0164216 11.900774,20.4443261 11.9903354,20.4907654 L11.9903354,18.0991441 Z M35.4366272,18.0991441 C35.2254392,18.0394365 34.4437119,17.7829149 33.3888775,17.7829149 C30.652279,17.7829149 28.6465457,19.7300463 28.6465457,22.3914575 C28.6465457,25.2585282 30.8623613,27 33.3888775,27 C34.3873213,27 35.1546746,26.7622753 35.4366272,26.6837708 L35.4366272,24.2932553 C35.3382202,24.3474344 34.6040378,24.7653876 33.5480978,24.7653876 C32.0531963,24.7653876 31.0879233,23.7127647 31.0879233,22.3914575 C31.0879233,21.0259224 32.0952127,20.0164216 33.5480978,20.0164216 C34.621729,20.0164216 35.3470658,20.4443261 35.4366272,20.4907654 L35.4366272,18.0991441 Z M15.0785454,26.8429911 L17.3253204,26.8429911 L17.3253204,17.9399238 L15.0785454,17.9399238 L15.0785454,26.8429911 Z" id="Fill-2" fill="#00BCEB"></path>
    </g>
</svg>